<?xml version="1.0" standalone="no"?>
<!DOCTYPE svg PUBLIC "-//W3C//DTD SVG 20010904//EN"
 "http://www.w3.org/TR/2001/REC-SVG-20010904/DTD/svg10.dtd">
<svg version="1.0" xmlns="http://www.w3.org/2000/svg"
 width="2141.000000pt" height="2141.000000pt" viewBox="0 0 2141.000000 2141.000000"
 preserveAspectRatio="xMidYMid meet">
<metadata>
Created by potrace 1.11, written by Peter Selinger 2001-2013
</metadata>
<g transform="translate(0.000000,2141.000000) scale(0.100000,-0.100000)"
fill="#000000" stroke="none">
<path d="M10520 21344 c-96 -28 -172 -68 -245 -127 -71 -58 -115 -114 -190
-247 -84 -146 -78 -134 -118 -205 -19 -33 -46 -80 -60 -105 -13 -25 -41 -74
-62 -110 -20 -36 -51 -90 -68 -120 -16 -30 -93 -165 -170 -300 -199 -349 -435
-766 -470 -830 -16 -30 -33 -59 -37 -65 -4 -5 -17 -27 -29 -48 -27 -48 -213
-376 -344 -607 -55 -96 -109 -193 -121 -215 -12 -22 -29 -51 -38 -65 -15 -24
-294 -516 -346 -610 -14 -25 -42 -74 -62 -110 -50 -85 -367 -644 -392 -690
-10 -19 -23 -42 -28 -50 -11 -16 -180 -315 -231 -408 -18 -31 -52 -90 -76
-130 -24 -41 -43 -75 -43 -77 0 -1 -47 -85 -105 -185 -58 -101 -105 -185 -105
-187 0 -2 -10 -20 -23 -41 -13 -20 -37 -62 -54 -92 -17 -30 -84 -149 -150
-265 -66 -115 -131 -231 -146 -256 -14 -26 -81 -145 -150 -265 -390 -687 -507
-893 -507 -897 0 -2 9093 -1 9098 2 2 0 -8 20 -22 44 -57 99 -66 114 -84 148
-11 19 -86 152 -168 295 -81 142 -161 284 -177 314 -16 30 -36 62 -43 71 -8 8
-14 19 -14 22 0 4 -83 152 -184 329 -101 178 -194 341 -206 363 -12 22 -51 90
-85 150 -106 186 -316 557 -348 615 -16 30 -38 67 -49 82 -10 14 -18 28 -18
31 0 3 -51 94 -113 203 -63 110 -125 220 -140 245 -14 26 -99 176 -190 335
-90 159 -179 316 -197 349 -18 33 -44 77 -57 97 -12 21 -23 39 -23 41 0 2 -23
44 -51 93 -29 49 -63 109 -77 134 -14 25 -67 119 -118 208 -52 90 -94 166 -94
169 0 3 -8 17 -18 31 -11 15 -32 52 -49 82 -31 57 -46 83 -114 203 -23 40 -53
92 -67 117 -14 25 -56 98 -94 164 -37 65 -68 120 -68 121 0 2 -38 69 -85 150
-47 80 -85 148 -85 150 0 1 -41 74 -91 161 -50 88 -104 182 -119 209 -15 28
-81 142 -145 255 -64 113 -129 228 -145 255 -15 28 -37 66 -48 85 -11 19 -29
51 -40 70 -22 41 -47 84 -110 195 -25 44 -59 105 -75 135 -16 30 -36 62 -43
71 -8 8 -14 18 -14 22 0 4 -20 41 -45 83 -25 41 -45 78 -45 80 0 11 -81 122
-111 153 -72 73 -168 133 -261 165 -72 24 -95 27 -208 31 -89 3 -118 0 -190
-21z"/>
<path d="M7825 20920 c-66 -15 -77 -23 -662 -407 -119 -79 -218 -143 -219
-143 -1 0 -55 -35 -120 -78 -66 -43 -211 -139 -324 -212 -113 -73 -302 -197
-420 -275 -118 -77 -253 -165 -299 -195 -47 -30 -174 -113 -283 -185 -109 -71
-264 -173 -345 -226 -82 -53 -220 -144 -308 -201 -88 -58 -266 -174 -395 -258
-129 -84 -314 -205 -410 -269 -96 -64 -178 -118 -183 -119 -6 -3 -178 -115
-247 -162 -16 -11 -238 -155 -450 -294 -74 -48 -253 -165 -397 -259 -145 -95
-380 -248 -523 -342 -143 -93 -356 -233 -474 -310 -117 -77 -242 -159 -277
-182 -35 -22 -72 -50 -82 -61 -29 -32 -45 -100 -35 -145 18 -79 -63 -26 1153
-752 303 -181 651 -389 775 -463 124 -74 239 -143 255 -152 17 -10 245 -146
509 -304 263 -157 482 -286 487 -286 5 0 9 -4 9 -9 0 -5 8 -11 18 -14 9 -4 33
-16 53 -29 73 -46 197 -117 208 -120 6 -2 26 24 45 57 67 122 100 183 161 290
35 61 149 265 255 455 106 190 223 399 260 465 37 66 108 193 159 283 50 89
91 164 91 166 0 2 26 49 58 103 31 54 64 112 72 128 8 17 22 41 31 55 9 14 32
54 51 90 19 36 77 139 128 230 51 91 102 181 113 200 11 19 38 69 60 110 22
41 43 80 47 85 5 6 20 33 35 60 47 84 315 565 360 645 23 41 97 172 163 290
66 118 130 233 142 255 13 22 55 99 95 170 40 72 81 146 92 165 11 19 35 62
53 95 18 33 36 65 40 70 4 6 21 35 37 65 59 109 96 175 112 200 8 14 16 27 16
30 0 3 10 21 21 40 18 30 105 184 196 350 14 25 35 63 48 85 12 22 56 101 98
175 42 74 120 214 174 310 143 253 169 309 174 376 11 139 -68 269 -201 330
-54 25 -148 36 -200 24z"/>
<path d="M13437 20919 c-161 -36 -277 -195 -262 -359 6 -61 29 -113 120 -275
34 -60 91 -162 126 -225 35 -63 69 -122 74 -132 12 -20 29 -50 84 -153 24 -44
47 -84 51 -90 4 -5 20 -32 35 -60 15 -27 80 -144 145 -260 65 -115 130 -232
145 -260 15 -27 35 -63 45 -80 10 -16 32 -57 51 -90 18 -33 43 -78 55 -100 13
-22 31 -56 42 -75 11 -19 71 -127 134 -240 63 -113 168 -299 232 -415 64 -115
120 -217 125 -225 5 -8 72 -127 149 -265 132 -235 426 -760 487 -870 16 -27
57 -100 92 -162 34 -62 63 -117 63 -123 0 -5 5 -10 10 -10 6 0 10 -5 10 -10 0
-6 29 -61 63 -123 35 -62 75 -132 89 -157 59 -107 313 -559 336 -600 14 -25
36 -63 48 -85 17 -33 100 -181 321 -575 28 -50 165 -296 198 -355 15 -27 33
-58 40 -67 11 -16 45 2 366 193 195 116 370 221 389 233 19 12 46 28 60 35 14
8 97 58 185 111 88 53 374 224 635 380 261 156 586 350 723 432 136 81 251
148 256 148 5 0 14 7 21 15 7 8 24 21 39 28 99 50 769 461 783 481 50 70 35
171 -34 230 -23 20 -45 36 -50 36 -5 0 -14 5 -21 11 -7 6 -64 44 -127 85 -63
41 -189 124 -280 183 -288 189 -513 336 -590 386 -41 27 -180 118 -308 202
-128 84 -235 153 -238 153 -3 0 -10 5 -17 11 -7 6 -82 56 -168 112 -337 221
-390 255 -554 362 -432 283 -547 357 -703 460 -92 61 -226 148 -297 194 -72
47 -200 130 -285 186 -85 56 -209 137 -275 180 -66 43 -176 115 -245 160 -314
206 -461 302 -540 353 -47 31 -170 111 -275 180 -104 68 -255 167 -335 219
-80 52 -222 145 -316 206 -93 62 -228 150 -300 196 -71 47 -186 122 -256 168
-70 46 -146 90 -170 99 -52 18 -131 24 -181 13z"/>
<path d="M815 15257 c-40 -13 -84 -54 -101 -94 -12 -27 -14 -572 -14 -3459 0
-3111 1 -3429 16 -3459 39 -84 153 -119 234 -74 43 24 43 25 346 519 28 47 74
121 101 165 27 44 129 211 227 370 98 160 188 306 201 325 12 19 102 166 200
325 97 160 188 306 200 325 12 19 67 107 120 195 54 88 119 194 145 235 26 41
170 275 320 520 150 245 282 461 295 480 12 19 50 80 83 135 34 55 66 105 72
112 5 7 10 14 10 17 0 2 70 118 156 258 86 139 165 268 176 287 11 19 36 60
56 90 20 31 44 68 52 83 29 52 179 293 189 305 6 7 11 14 11 16 0 3 52 88 115
191 63 103 115 192 114 199 0 9 -1095 672 -1903 1152 -19 11 -72 43 -117 70
-46 28 -92 55 -101 60 -10 6 -258 154 -551 329 -292 176 -535 321 -538 323
-18 8 -88 9 -114 0z"/>
<path d="M20499 15263 c-15 -2 -165 -87 -334 -189 -169 -101 -312 -184 -316
-184 -5 0 -9 -4 -9 -9 0 -5 -6 -11 -12 -13 -11 -2 -177 -99 -238 -138 -21 -14
-329 -199 -365 -220 -26 -15 -78 -46 -254 -152 -41 -25 -144 -87 -189 -113
-10 -5 -133 -80 -275 -165 -141 -85 -276 -166 -300 -180 -24 -14 -146 -87
-272 -163 -127 -76 -239 -144 -250 -150 -11 -7 -38 -24 -60 -38 -22 -14 -45
-28 -50 -30 -6 -2 -81 -46 -168 -98 l-156 -95 21 -35 c12 -20 36 -58 53 -86
18 -27 58 -93 90 -145 32 -52 99 -162 149 -243 50 -81 98 -160 107 -175 9 -15
94 -153 189 -307 200 -325 166 -269 529 -860 156 -253 293 -476 305 -495 13
-19 85 -136 161 -260 76 -124 171 -279 212 -345 40 -66 78 -127 83 -135 5 -8
48 -78 95 -155 47 -77 112 -183 145 -235 32 -52 92 -149 132 -214 40 -66 82
-134 93 -152 11 -18 47 -77 80 -131 33 -54 63 -99 68 -101 4 -2 7 -8 7 -13 0
-6 15 -33 33 -62 19 -29 85 -135 147 -237 130 -213 176 -287 329 -533 61 -98
111 -181 111 -185 0 -3 15 -19 33 -34 79 -68 216 -39 261 55 15 32 16 306 16
3463 0 3407 0 3428 -20 3469 -29 61 -109 99 -181 88z"/>
<path d="M6520 12700 c0 -3 59 -109 131 -235 73 -127 141 -246 152 -265 10
-19 155 -271 320 -560 165 -289 311 -545 325 -570 14 -25 69 -121 122 -215 54
-93 107 -186 117 -205 11 -19 70 -122 132 -229 61 -106 111 -194 111 -196 0
-2 34 -60 75 -130 41 -69 75 -128 75 -129 0 -3 192 -341 265 -466 8 -14 540
-944 1182 -2067 642 -1124 1170 -2043 1174 -2043 4 0 279 473 385 665 30 55
1426 2497 1489 2605 39 69 83 145 97 170 56 100 189 332 260 455 41 72 86 150
100 175 37 65 137 242 148 260 14 23 373 651 390 682 8 14 33 57 54 95 22 37
47 82 56 98 50 88 452 792 460 805 15 26 294 513 311 545 9 16 109 192 223
389 113 198 203 362 200 365 -7 7 -8354 8 -8354 1z m5100 -1087 c0 -12 -55
-122 -83 -165 -44 -70 -155 -184 -234 -241 -112 -81 -263 -142 -423 -172 -114
-21 -498 -11 -598 15 -23 6 -34 5 -37 -3 -6 -17 -33 -159 -50 -257 -8 -47 -16
-96 -19 -110 -19 -94 -64 -355 -61 -358 2 -2 17 4 34 12 87 45 212 61 491 61
255 0 330 -8 460 -51 300 -100 483 -359 530 -749 15 -125 16 -308 2 -405 -62
-432 -363 -741 -817 -840 -124 -27 -196 -34 -355 -34 -187 0 -323 11 -447 35
-29 6 -56 11 -60 11 -22 1 -143 53 -183 78 -102 66 -153 170 -146 301 6 122
62 180 170 180 65 0 119 -21 141 -55 27 -42 35 -130 14 -175 -9 -21 -22 -42
-28 -45 -21 -13 -11 -26 38 -51 76 -38 173 -52 338 -49 189 4 316 48 412 143
127 126 175 311 175 681 0 315 -29 471 -107 578 -79 107 -195 155 -365 151
-111 -3 -164 -13 -239 -49 -79 -37 -127 -73 -173 -131 l-36 -46 -92 36 c-50
20 -97 42 -103 48 -9 9 -7 35 5 105 9 51 18 108 21 126 2 18 6 45 9 60 8 38
14 72 36 207 11 66 22 129 24 140 5 31 15 87 21 125 3 19 10 60 15 90 5 30 12
71 15 90 3 19 10 60 15 90 5 30 12 71 15 90 4 19 8 48 10 63 2 16 6 40 9 55 3
15 8 42 11 60 3 17 8 47 11 65 3 17 11 66 17 107 l12 75 40 -1 c41 -1 198 -14
225 -19 96 -18 567 -26 716 -13 197 18 386 64 466 112 42 26 64 32 105 32 29
-1 53 -2 53 -3z"/>
<path d="M5083 12317 c-34 -51 -154 -227 -265 -392 -112 -165 -280 -412 -373
-550 -93 -137 -205 -304 -250 -370 -147 -217 -310 -457 -440 -650 -70 -104
-143 -211 -162 -236 -18 -26 -33 -51 -33 -57 0 -6 -3 -12 -7 -14 -5 -1 -35
-43 -69 -93 -33 -49 -108 -160 -166 -245 -220 -326 -318 -471 -430 -635 -63
-93 -156 -231 -206 -305 -50 -74 -95 -139 -99 -145 -5 -5 -73 -107 -153 -225
-187 -280 -203 -302 -217 -317 -6 -7 -15 -22 -18 -33 -3 -11 -10 -20 -15 -20
-5 0 -12 -9 -15 -20 -3 -11 -12 -26 -18 -32 -7 -7 -61 -87 -122 -178 -60 -91
-112 -167 -115 -170 -3 -3 -43 -61 -89 -130 -46 -69 -135 -199 -196 -290 -62
-91 -165 -244 -230 -340 -134 -198 -280 -413 -479 -705 -196 -289 -208 -311
-212 -401 -4 -88 14 -150 62 -217 64 -88 145 -129 279 -142 33 -3 76 -8 95
-10 19 -2 64 -7 100 -10 36 -4 76 -8 90 -10 14 -2 52 -6 85 -10 135 -13 162
-15 195 -19 19 -3 62 -8 95 -11 33 -3 71 -8 85 -10 14 -2 61 -6 105 -10 44 -4
87 -8 95 -10 8 -2 47 -6 85 -9 89 -8 152 -15 190 -21 17 -3 62 -7 100 -11 39
-3 84 -7 100 -9 17 -2 57 -6 90 -9 33 -4 74 -9 90 -11 17 -2 62 -7 100 -10 39
-4 81 -8 95 -10 14 -2 54 -6 90 -10 36 -3 76 -8 90 -10 14 -2 61 -7 105 -11
44 -3 89 -8 100 -10 11 -2 52 -6 92 -9 40 -4 82 -8 92 -10 11 -2 51 -7 88 -10
37 -4 84 -8 103 -11 19 -2 60 -6 90 -9 30 -3 69 -8 85 -10 17 -2 60 -7 95 -10
36 -3 83 -8 105 -11 39 -4 77 -8 188 -19 28 -3 68 -8 87 -10 19 -2 64 -7 100
-10 36 -4 76 -8 90 -10 14 -2 59 -6 100 -10 41 -3 82 -8 90 -10 8 -2 51 -7 94
-10 43 -4 86 -8 95 -10 9 -2 53 -6 96 -10 44 -3 89 -8 100 -10 11 -2 45 -7 75
-10 30 -2 98 -9 150 -15 52 -6 120 -13 150 -15 30 -3 73 -8 95 -10 22 -3 60
-7 85 -10 25 -2 68 -7 95 -10 28 -3 75 -8 105 -11 30 -3 69 -7 86 -9 17 -2 62
-6 100 -10 38 -3 80 -8 94 -10 14 -3 54 -7 90 -10 36 -4 79 -8 95 -10 17 -2
59 -7 95 -10 36 -4 79 -9 95 -11 17 -2 60 -6 96 -9 37 -3 76 -7 87 -10 11 -2
56 -7 99 -10 43 -4 85 -8 93 -10 8 -1 49 -6 90 -10 41 -3 86 -8 100 -10 14 -3
54 -7 90 -10 36 -3 81 -8 100 -10 19 -2 85 -9 145 -15 61 -6 124 -13 140 -15
17 -3 77 -9 135 -15 58 -6 121 -13 140 -15 19 -3 64 -7 100 -10 36 -3 81 -7
100 -10 36 -4 80 -9 190 -20 36 -4 76 -8 90 -10 14 -2 54 -6 90 -10 36 -4 76
-8 90 -10 14 -2 61 -7 105 -11 44 -3 88 -8 98 -10 10 -2 46 -6 80 -9 34 -3 78
-8 97 -10 19 -2 64 -7 100 -10 36 -4 76 -8 90 -10 14 -2 59 -7 100 -10 41 -4
82 -8 90 -10 9 -2 47 -6 85 -10 39 -3 84 -8 100 -10 17 -2 57 -7 90 -10 60 -5
142 -13 203 -20 32 -3 42 10 23 31 -5 5 -18 25 -29 44 -11 19 -48 85 -82 145
-69 121 -65 114 -172 300 -41 72 -87 151 -102 178 -52 94 -80 142 -95 169 -36
59 -86 146 -109 188 -14 25 -28 50 -32 55 -4 6 -21 35 -37 65 -17 30 -91 161
-165 290 -74 129 -146 255 -160 280 -14 25 -121 211 -237 414 -116 203 -211
373 -211 378 0 4 -4 8 -10 8 -5 0 -10 4 -10 9 0 6 -88 164 -197 353 -108 189
-207 363 -221 388 -14 25 -28 50 -32 55 -4 6 -21 35 -37 65 -17 30 -263 462
-548 960 -285 498 -526 919 -536 937 -10 17 -181 317 -380 665 -199 348 -478
836 -619 1083 -142 248 -267 466 -278 486 -101 180 -197 346 -206 356 -8 9
-27 -12 -73 -80z"/>
<path d="M16242 12398 c-7 -7 -12 -16 -12 -22 0 -5 -6 -17 -14 -25 -7 -9 -27
-41 -43 -71 -22 -42 -793 -1393 -899 -1577 -31 -52 -307 -536 -319 -558 -6
-11 -23 -39 -38 -62 -15 -24 -27 -45 -27 -47 0 -3 -106 -191 -237 -418 -130
-227 -245 -428 -255 -447 -11 -18 -63 -111 -117 -205 -55 -94 -109 -189 -121
-211 -13 -22 -33 -58 -45 -80 -13 -22 -62 -107 -109 -189 -47 -82 -86 -151
-86 -152 0 -2 -18 -33 -40 -69 -22 -36 -40 -68 -40 -70 0 -3 -11 -22 -24 -43
-13 -20 -49 -84 -82 -142 -32 -58 -73 -128 -91 -157 -18 -29 -33 -54 -33 -57
0 -3 -52 -97 -116 -208 -309 -537 -380 -661 -514 -898 -20 -36 -137 -240 -260
-455 -122 -214 -231 -403 -240 -420 -9 -16 -90 -158 -180 -315 -90 -157 -172
-301 -183 -320 -51 -91 -75 -132 -211 -369 -80 -140 -146 -258 -146 -262 0 -3
-7 -12 -15 -19 -27 -22 -18 -39 18 -35 30 3 65 7 207 21 30 3 66 7 80 9 14 2
58 7 99 11 41 3 83 7 92 9 10 2 58 7 106 10 48 4 91 9 94 11 3 2 41 6 84 10
44 3 86 7 95 9 8 2 49 6 90 10 41 3 86 8 100 10 14 2 54 6 90 10 36 3 81 8
100 10 19 2 82 9 140 15 58 6 121 13 140 15 19 2 64 6 100 10 36 4 76 8 90 10
14 2 51 6 83 9 31 3 83 9 115 12 31 3 68 7 82 9 14 2 57 7 95 10 39 4 81 8 95
10 14 2 57 7 95 10 39 4 81 8 95 10 45 6 140 16 285 30 33 3 76 7 95 10 45 5
120 13 190 20 30 3 64 7 75 9 11 2 56 7 100 11 44 4 91 9 105 10 14 1 57 6 95
9 39 4 81 9 95 11 14 2 52 6 85 10 33 3 76 8 95 10 19 2 62 7 95 10 33 3 76 8
95 10 19 2 62 7 95 10 33 3 96 10 140 15 44 5 112 12 150 15 39 4 81 8 95 10
14 2 57 7 95 10 83 8 127 12 175 19 19 3 62 8 95 11 33 3 76 7 95 9 78 9 157
18 191 21 55 5 161 16 189 20 14 2 54 6 90 10 79 7 141 13 198 20 24 3 64 7
90 10 26 3 67 7 92 10 25 2 70 7 100 10 30 3 71 7 90 9 55 7 159 18 201 21 20
2 55 6 76 9 21 3 67 8 103 11 36 3 81 8 100 10 19 2 64 7 100 10 36 4 76 8 90
10 14 2 52 6 85 10 33 3 85 8 115 11 30 3 66 7 80 9 14 3 54 7 90 10 36 3 81
7 100 10 83 10 138 16 185 20 28 2 68 7 90 9 22 3 67 8 100 11 33 2 78 7 100
10 65 8 126 14 185 20 30 3 71 7 90 10 19 3 60 7 90 10 30 3 76 7 103 10 26 3
68 7 95 10 26 3 85 9 132 14 47 6 114 13 150 16 36 4 76 8 90 10 14 2 59 6
100 10 41 3 82 8 90 10 8 2 50 7 93 10 101 7 174 35 236 91 75 67 105 137 106
244 0 76 -3 92 -32 150 -17 36 -41 75 -52 87 -12 12 -21 24 -21 26 0 4 -299
449 -317 472 -5 6 -53 78 -109 160 -55 83 -116 173 -136 200 -19 28 -98 145
-176 260 -77 116 -172 256 -211 313 -39 57 -71 106 -71 110 0 3 -8 15 -18 26
-11 12 -90 127 -177 256 -160 237 -283 419 -470 695 -56 83 -155 229 -220 325
-167 247 -337 497 -420 620 -187 275 -281 413 -290 429 -5 9 -62 93 -126 186
-64 94 -165 242 -224 330 -60 88 -150 221 -200 295 -50 74 -129 191 -175 260
-46 69 -86 127 -89 130 -4 3 -89 129 -190 280 -102 151 -220 326 -263 388 -43
62 -78 117 -78 122 0 4 -3 10 -8 12 -4 2 -59 80 -122 173 -161 240 -242 360
-244 362 -1 2 -8 -3 -14 -9z"/>
<path d="M1451 4019 c-66 -46 -92 -111 -77 -192 13 -71 28 -80 491 -287 152
-67 225 -101 315 -142 36 -17 99 -45 140 -63 41 -18 107 -47 145 -65 39 -18
135 -61 215 -97 80 -36 168 -75 195 -88 28 -12 73 -32 100 -45 28 -12 73 -33
100 -45 28 -13 165 -75 305 -138 140 -63 280 -126 310 -140 30 -14 145 -65
255 -115 271 -121 902 -406 973 -438 31 -14 122 -55 202 -91 80 -36 168 -75
195 -88 28 -13 73 -33 100 -45 28 -12 97 -44 155 -70 58 -26 222 -100 365
-165 143 -64 373 -168 510 -230 375 -169 765 -345 813 -366 23 -10 63 -29 90
-40 75 -35 163 -74 217 -99 28 -12 68 -31 90 -40 22 -10 67 -30 100 -45 33
-15 78 -35 100 -45 44 -19 95 -42 234 -107 51 -23 95 -43 97 -43 2 0 34 -14
71 -31 81 -38 185 -85 227 -103 17 -8 58 -26 91 -41 33 -15 123 -56 200 -90
77 -35 172 -77 210 -95 39 -18 108 -49 155 -70 47 -21 117 -52 155 -70 319
-147 314 -145 405 -145 73 0 93 4 140 28 94 46 155 117 181 208 10 34 13 351
13 1432 1 1227 -1 1390 -14 1397 -8 4 -52 11 -97 14 -46 4 -91 9 -100 10 -10
2 -52 7 -93 11 -41 4 -83 9 -93 11 -9 1 -45 5 -80 9 -34 3 -80 7 -102 10 -22
3 -61 7 -87 10 -27 3 -69 7 -95 10 -27 3 -68 7 -93 10 -131 15 -182 21 -275
30 -33 3 -76 8 -95 11 -19 2 -57 7 -85 9 -27 3 -68 7 -90 10 -22 2 -67 7 -100
10 -33 3 -71 8 -85 10 -14 3 -56 7 -95 10 -38 4 -77 8 -85 10 -8 2 -51 7 -95
11 -44 3 -88 8 -97 9 -15 3 -62 8 -174 19 -23 3 -61 7 -85 10 -24 4 -64 8 -89
11 -72 6 -242 25 -280 30 -19 2 -60 7 -90 10 -70 7 -134 14 -185 20 -22 3 -67
7 -100 11 -33 3 -71 7 -85 9 -14 2 -56 7 -95 10 -38 4 -77 8 -85 10 -8 2 -49
7 -90 10 -41 4 -86 8 -100 10 -14 3 -55 7 -91 10 -36 3 -76 7 -89 10 -13 2
-53 7 -89 10 -37 3 -75 7 -86 9 -11 2 -49 7 -85 10 -36 4 -81 9 -100 11 -19 2
-66 7 -105 11 -38 3 -79 8 -90 10 -11 2 -49 6 -85 9 -36 3 -76 8 -90 10 -24 3
-66 8 -177 20 -27 3 -66 7 -88 9 -22 3 -87 10 -145 16 -111 11 -179 19 -220
25 -14 2 -54 6 -90 10 -36 3 -81 8 -100 10 -19 3 -62 7 -95 10 -33 4 -71 8
-85 10 -14 2 -54 6 -90 10 -36 3 -83 9 -105 11 -22 3 -58 7 -80 9 -22 2 -62 6
-90 9 -88 11 -128 16 -190 21 -33 3 -76 8 -95 10 -19 3 -56 7 -82 10 -55 6
-119 13 -180 20 -149 17 -176 20 -283 30 -33 4 -71 8 -85 10 -14 2 -54 6 -90
10 -36 3 -81 8 -100 10 -40 5 -88 11 -175 20 -33 3 -76 8 -95 10 -95 11 -378
42 -460 51 -25 2 -61 6 -80 9 -19 2 -57 7 -85 10 -27 2 -72 7 -100 10 -27 3
-75 8 -105 11 -30 2 -66 6 -80 9 -14 2 -54 6 -90 10 -36 4 -76 8 -90 10 -14 2
-52 6 -85 10 -33 3 -73 8 -90 10 -16 2 -73 7 -125 11 -89 6 -97 5 -129 -17z"/>
<path d="M19690 4024 c-52 -7 -131 -15 -175 -19 -44 -3 -87 -8 -95 -10 -8 -2
-44 -7 -80 -10 -36 -4 -76 -8 -90 -10 -14 -2 -59 -7 -100 -10 -41 -4 -82 -8
-90 -10 -8 -1 -44 -6 -80 -10 -36 -4 -78 -8 -95 -10 -16 -2 -61 -6 -100 -10
-38 -4 -77 -9 -86 -10 -9 -2 -52 -6 -95 -10 -43 -4 -81 -9 -84 -10 -3 -2 -43
-6 -90 -10 -47 -3 -92 -8 -100 -10 -8 -2 -44 -7 -80 -10 -36 -3 -81 -8 -100
-10 -19 -3 -60 -7 -90 -10 -30 -4 -68 -8 -85 -10 -115 -13 -178 -19 -280 -29
-27 -3 -68 -8 -90 -10 -22 -3 -67 -8 -100 -11 -33 -3 -71 -8 -85 -10 -14 -3
-54 -7 -90 -10 -36 -3 -76 -8 -90 -10 -14 -2 -54 -6 -90 -10 -36 -4 -76 -8
-90 -10 -14 -2 -54 -6 -90 -10 -36 -3 -123 -13 -195 -21 -71 -8 -152 -17 -180
-20 -27 -2 -66 -6 -85 -9 -19 -2 -60 -7 -90 -10 -30 -3 -71 -8 -90 -10 -19 -2
-66 -7 -105 -11 -38 -3 -77 -8 -86 -9 -9 -2 -52 -6 -95 -10 -43 -3 -86 -8 -94
-10 -8 -2 -46 -7 -85 -10 -38 -4 -81 -8 -95 -10 -14 -2 -53 -7 -88 -10 -35 -4
-71 -8 -80 -10 -9 -1 -55 -6 -102 -10 -47 -4 -87 -9 -90 -10 -3 -2 -41 -6 -85
-9 -44 -4 -91 -8 -105 -11 -25 -4 -72 -10 -180 -20 -30 -3 -66 -7 -80 -10 -14
-3 -57 -7 -95 -10 -39 -3 -79 -7 -91 -9 -11 -2 -51 -7 -89 -11 -39 -3 -81 -8
-95 -10 -14 -2 -54 -7 -90 -10 -81 -8 -135 -14 -180 -20 -19 -2 -64 -7 -100
-10 -36 -3 -76 -8 -90 -10 -14 -2 -52 -7 -85 -10 -33 -3 -78 -8 -100 -11 -22
-2 -62 -7 -90 -9 -27 -3 -66 -8 -85 -10 -40 -5 -110 -12 -190 -20 -30 -3 -71
-7 -90 -10 -19 -2 -60 -7 -90 -10 -30 -3 -71 -8 -90 -10 -19 -2 -57 -7 -85
-10 -77 -8 -146 -15 -185 -20 -19 -2 -66 -7 -105 -11 -38 -3 -72 -8 -75 -9 -3
-2 -45 -6 -95 -10 -49 -3 -97 -8 -105 -10 -8 -2 -46 -7 -85 -10 -38 -4 -81 -8
-95 -10 -88 -12 -112 -15 -175 -20 -38 -3 -81 -8 -95 -10 -14 -2 -50 -6 -80
-9 -30 -4 -71 -8 -90 -10 -19 -3 -64 -7 -100 -11 -36 -3 -76 -8 -90 -10 -14
-2 -52 -6 -85 -10 -71 -7 -137 -14 -185 -20 -19 -3 -62 -7 -95 -10 -33 -3 -69
-8 -80 -10 -11 -2 -25 -4 -30 -4 -7 -1 -10 -469 -9 -1403 l1 -1403 21 -52 c56
-137 193 -223 336 -210 66 6 78 10 176 55 36 16 157 71 270 122 113 51 228
102 255 115 28 13 142 64 255 115 113 50 233 105 268 121 35 16 65 29 67 29 2
0 41 18 87 39 46 22 220 101 388 176 168 75 330 148 360 162 30 14 143 65 250
113 107 48 220 99 250 113 30 14 123 55 205 92 83 37 173 77 200 90 28 13 192
87 365 165 173 78 338 152 365 165 28 12 205 93 395 178 190 85 370 166 400
180 30 14 107 48 170 77 63 29 156 70 205 92 88 39 118 53 240 108 33 15 83
37 110 50 28 12 97 44 155 70 100 45 168 76 235 105 17 8 74 34 129 59 54 25
100 46 101 46 2 0 32 13 67 29 35 16 180 82 323 146 143 64 285 128 315 142
30 14 98 45 150 68 52 24 163 73 245 110 83 37 174 78 203 91 117 54 164 75
317 144 88 40 178 80 200 90 22 10 128 57 235 105 245 110 290 133 314 159 66
75 40 213 -49 256 -49 24 -95 24 -255 4z"/>
</g>
</svg>
